<svg xmlns="http://www.w3.org/2000/svg" xmlns:xlink="http://www.w3.org/1999/xlink" viewBox="0 0 270 90" enable-background="new 0 0 270 90"><defs><path id="a" d="M0-3.5h270v105H0z"/></defs><clipPath id="b"><use xlink:href="#a" overflow="visible"/></clipPath><path clip-path="url(#b)" fill="none" stroke="#cf00ab" stroke-width="51" stroke-linecap="square" stroke-miterlimit="10" d="M0 54.5s26-12 36-13.5 17.5-5 30-5 31 2 40.5 5 32 13 45.5 15 37.5 10 57 7 91.5-22.8 84.8-20.2"/><path clip-path="url(#b)" fill="none" stroke="#fff" stroke-miterlimit="10" stroke-dasharray="18,4" d="M-4 40.5s26-12 36-13.5 17.5-5 30-5 31 2 40.5 5 32 13 45.5 15 37.5 10 57 7 91.5-22.8 84.8-20.2M6.2 49S22 41.5 32 40s17.5-5 30-5 31 2 40.5 5 32 13 45.5 15 37.5 10 57 7 91.5-22.8 84.8-20.2M-4 66.5s26-12 36-13.5 17.5-5 30-5 31 2 40.5 5 32 13 45.5 15 37.5 10 57 7 91.5-22.8 84.8-20.2"/><path fill="#cf00ab" d="M11.7 26.3L.2 32v43L16 65.7 13.7 44 16 25zM250 71V32.7l20-5.7v39.7z"/><path d="M64.6 52.4s-.6.1-1.7.4c-1.1.3-2.6.7-4.4 1.2-.9.3-1.9.5-2.9.9-1 .3-2.1.6-3.3.9-2.3.6-4.7 1.2-7.2 1.8-2.5.6-4.9 1.1-7.2 1.6s-4.5.9-6.3 1.3c-3.7.7-6.2 1.1-6.2 1.1s2.3-1 5.9-2.2c1.8-.6 3.9-1.3 6.2-1.9 2.3-.7 4.7-1.3 7.2-1.8 2.5-.6 4.9-1.1 7.2-1.5 1.2-.2 2.3-.4 3.3-.6 1.1-.2 2.1-.4 3-.5 1.9-.3 3.5-.5 4.6-.5 1.2-.2 1.8-.2 1.8-.2z"/><defs><path id="c" d="M17.2 63.5s1.7-.7 7.2-1.6C29.9 61 40 60.2 46.1 58c6.1-2.1 7.5-1.2 13-3.8 5.5-2.6 8.4-2.3 8.4-2.3l-.2-30.7-15-33.6-35 8.2-28.4 9.8 28.3 57.9z"/></defs><clipPath id="d"><use xlink:href="#c" overflow="visible"/></clipPath><path clip-path="url(#d)" stroke="#000" stroke-width="2" stroke-miterlimit="10" d="M33 73.7l19.1-5c2.8-.7 4.5-3.6 3.7-6.3L41.5 9.5c-.7-2.8-3.6-4.4-6.4-3.7l-14.9 2C17.7 9.5 13.7 12 13 13c-.7 1.2-1 2.6-.6 4.1L26.7 70c.6 2.8 3.5 4.5 6.3 3.7z"/><path clip-path="url(#d)" fill="#fff" stroke="#000" stroke-width="2" stroke-miterlimit="10" d="M37.8 70.5l19-5c2.8-.7 4.5-3.6 3.7-6.4L46.3 6.3c-.8-2.8-3.6-4.4-6.4-3.7l-19 5c-2.8.7-4.5 3.6-3.7 6.4l14.3 52.8c.6 2.8 3.5 4.5 6.3 3.7z"/><path fill="none" stroke="#000" stroke-width="2" stroke-linecap="round" stroke-miterlimit="10" d="M34.1 63.6l22.5-5.9" clip-path="url(#d)"/><circle clip-path="url(#d)" stroke="#000" stroke-width="2" stroke-miterlimit="10" cx="56.8" cy="60.3" r=".3"/><path fill="none" stroke="#000" stroke-width="2" stroke-linecap="round" stroke-miterlimit="10" d="M32.6 57.8L55 51.9" clip-path="url(#d)"/><circle clip-path="url(#d)" stroke="#000" stroke-width="2" stroke-miterlimit="10" cx="55.2" cy="54.6" r=".3"/><path fill="none" stroke="#000" stroke-width="2" stroke-linecap="round" stroke-miterlimit="10" d="M31 52.1l22.5-5.9" clip-path="url(#d)"/><circle clip-path="url(#d)" stroke="#000" stroke-width="2" stroke-miterlimit="10" cx="53.7" cy="48.8" r=".3"/><path fill="none" stroke="#000" stroke-width="2" stroke-linecap="round" stroke-miterlimit="10" d="M29.4 46.3l22.5-5.9" clip-path="url(#d)"/><circle clip-path="url(#d)" stroke="#000" stroke-width="2" stroke-miterlimit="10" cx="52.1" cy="43.1" r=".3"/><path fill="none" stroke="#000" stroke-width="2" stroke-linecap="round" stroke-miterlimit="10" d="M27.9 40.6l22.5-5.9" clip-path="url(#d)"/><circle clip-path="url(#d)" stroke="#000" stroke-width="2" stroke-miterlimit="10" cx="50.6" cy="37.3" r=".3"/><path fill="none" stroke="#000" stroke-width="2" stroke-linecap="round" stroke-miterlimit="10" d="M26.3 34.8l22.5-5.9" clip-path="url(#d)"/><circle clip-path="url(#d)" stroke="#000" stroke-width="2" stroke-miterlimit="10" cx="49" cy="31.5" r=".3"/><path fill="none" stroke="#000" stroke-width="2" stroke-linecap="round" stroke-miterlimit="10" d="M24.8 29l22.5-5.9" clip-path="url(#d)"/><circle clip-path="url(#d)" stroke="#000" stroke-width="2" stroke-miterlimit="10" cx="47.5" cy="25.8" r=".3"/><path fill="none" stroke="#000" stroke-width="2" stroke-linecap="round" stroke-miterlimit="10" d="M23.2 23.3l22.5-5.9" clip-path="url(#d)"/><circle clip-path="url(#d)" stroke="#000" stroke-width="2" stroke-miterlimit="10" cx="45.9" cy="20" r=".3"/><path d="M68.2 51.6s-.8.2-2.1.6c-1.3.5-3.2 1.2-5.4 2.2-1.1.5-2.3 1-3.6 1.5-1.3.5-2.7 1-4.1 1.5-1.4.5-3 1-4.5 1.4-1.6.4-3.1.8-4.7 1.2-1.6.4-3.2.7-4.8 1-1.6.3-3.1.5-4.6.8-3 .4-5.9.7-8.3.8-2.4.2-4.5.2-5.9.3H18s.2 0 .6-.1c.4-.1.9-.2 1.6-.3 1.4-.3 3.4-.6 5.8-1s5.2-.9 8.1-1.4c1.5-.3 3-.6 4.6-.9 1.5-.3 3.1-.7 4.7-1 1.6-.3 3.2-.7 4.7-1.1l4.5-1.2c2.9-.8 5.6-1.7 7.9-2.4 2.3-.7 4.3-1.2 5.7-1.5.7-.1 1.3-.2 1.6-.2.2-.2.4-.2.4-.2z"/><path fill="none" stroke="#000" stroke-width="2" stroke-miterlimit="10" d="M37.9 12.7c-.1-.4-.4-.6-.7-.7v-.2c-.2-.7-.9-1.1-1.5-.9-.2 0-.3.1-.5.2-.3-1.1-1.5-1.8-2.6-1.6-.7.2-1.3.7-1.5 1.3h-.7c-1 .2-1.6 1.2-1.3 2.2 0 .1.1.3.2.4-.3.3-.5.8-.4 1.2.2.7.9 1.1 1.5.9l6.9-1.7c.4 0 .8-.5.6-1.1z"/><defs><path id="e" d="M124.1 16.8l-2.8 48.1s5.1 2.1 7.3 2.9c2.2.7 10.3 2.7 13 3 2.7.3 14.9 4.3 17.1 4.5 2.2.2 12.9 2.5 14.7 2.9 1.8.4 12.4 1.3 14.1 1.7s10.7.7 12.2.9c1.5.2 8.8.8 10.5.8s4.6 1 5.9.8c1.3-.2 5.2-.2 5.2-.2l7.7-37.9-74.3-9.6L142 18.5l-17.9-1.7z"/></defs><clipPath id="f"><use xlink:href="#e" overflow="visible"/></clipPath><g clip-path="url(#f)"><path fill="#fff" stroke="#000" stroke-width="2" stroke-linecap="round" stroke-miterlimit="10" d="M190.7 87l-70.2-13.8 6.3-30.9 70.3 13.8z"/><path d="M197.1 56.1l-70.3-13.8-1.7 8.7 70.2 13.8z"/><text transform="matrix(.967 .19 -.201 .98 127.191 62.417)" font-family="'InputMono-Bold'" font-size="6.736">&gt;batchAlgorithm</text></g><path d="M112.6 60.6s.3.2.9.5c.6.3 1.5.8 2.7 1.3 2.3 1.1 5.7 2.6 9.9 4 2.1.7 4.4 1.5 6.8 2.1 2.4.6 5.1 1.1 7.8 1.7 2.7.6 5.5 1.2 8.3 1.9 2.8.7 5.7 1.3 8.6 2 2.9.7 5.7 1.3 8.6 1.9 2.8.6 5.6 1.1 8.3 1.5 2.7.4 5.4.8 7.9 1.2 2.5.3 4.9.6 7.1.9 2.2.2 4.2.4 6 .6 1.8.2 3.3.3 4.6.5.6.1 1.2.1 1.7.1h.3l-.1.1c0 .1.1.1 0 .1h-.1c-.2-.1-.4-.1-.6-.1-.3-.1-.6-.1-.8-.1h-.1.2-.2.9c.2 0 .4 0 .6.1h.2s.1 0 .1.1c0 0 .1.1.1.2s-.1.1-.1.1h-.1c-.1 0-.3 0-.4.1-.5 0-1.1.1-1.7.1-2.6.1-6.3.1-10.7-.2-2.2-.1-4.6-.3-7.2-.6-2.5-.3-5.2-.6-8-1-2.7-.4-5.6-.9-8.5-1.5-2.9-.6-5.7-1.3-8.6-2-2.9-.7-5.7-1.4-8.6-2.1-2.8-.7-5.6-1.4-8.3-2.1-2.7-.7-5.3-1.2-7.8-2-2.5-.7-4.7-1.6-6.8-2.4-4.1-1.7-7.4-3.4-9.7-4.6-1.1-.6-2-1.2-2.6-1.5-.3-.7-.6-.9-.6-.9zM210.4 66.4s.6-.3 1.6-.7c1-.4 2.5-1 4.4-1.5.9-.3 1.9-.6 3-.8l3.3-.9c2.3-.6 4.7-1.2 7.2-1.7s4.9-1 7.3-1.4c2.3-.4 4.5-.7 6.4-1 3.8-.5 6.3-.6 6.3-.6s-2.4.8-6.1 1.7c-1.8.5-4 1-6.3 1.6-2.3.6-4.8 1.1-7.2 1.6-2.5.5-4.9 1.1-7.3 1.5-1.2.2-2.3.4-3.4.6-1.1.2-2.1.3-3 .5-1.9.3-3.4.6-4.5.8-1.1.2-1.7.3-1.7.3z"/><defs><path id="g" d="M258 56s-1.8.1-7.2 1.6c-5.3 1.5-14.8 5.2-21.2 5.9-6.4.7-7.3 2.1-13.4 2.2-6.1 0-8.6 1.5-8.6 1.5l-13.4-27.7-1.4-36.6 35.1-7.6 30-3.4.1 64.1z"/></defs><clipPath id="h"><use xlink:href="#g" overflow="visible"/></clipPath><g clip-path="url(#h)"><path stroke="#000" stroke-width="2" stroke-miterlimit="10" d="M248.3 72L229 75.7c-2.8.5-5.6-1.3-6.1-4.1l-10.6-53.7c-.6-2.8 1.3-5.5 4.1-6.1l14.3-4.7c3 .5 7.7.9 8.8 1.6 1.2.7 2.1 1.9 2.4 3.4l10.6 53.7c.5 2.9-1.3 5.6-4.2 6.2z"/><path fill="#fff" stroke="#000" stroke-width="2" stroke-miterlimit="10" d="M242.5 71.2l-19.4 3.7c-2.8.5-5.6-1.3-6.1-4.1l-10.6-53.6c-.6-2.8 1.3-5.6 4.1-6.2L230 7.3c2.8-.5 5.6 1.3 6.1 4.1L246.7 65c.6 2.9-1.3 5.6-4.2 6.2z"/><path fill="none" stroke="#000" stroke-width="2" stroke-linecap="round" stroke-miterlimit="10" d="M242.8 63.4L220 67.8"/><circle stroke="#000" stroke-width="2" stroke-miterlimit="10" cx="242.5" cy="65.9" r=".3"/><path fill="none" stroke="#000" stroke-width="2" stroke-linecap="round" stroke-miterlimit="10" d="M241.7 57.5l-22.9 4.4"/><circle stroke="#000" stroke-width="2" stroke-miterlimit="10" cx="241.3" cy="60.1" r=".3"/><path fill="none" stroke="#000" stroke-width="2" stroke-linecap="round" stroke-miterlimit="10" d="M240.5 51.7l-22.8 4.4"/><circle stroke="#000" stroke-width="2" stroke-miterlimit="10" cx="240.2" cy="54.2" r=".3"/><path fill="none" stroke="#000" stroke-width="2" stroke-linecap="round" stroke-miterlimit="10" d="M239.4 45.8l-22.9 4.4"/><circle stroke="#000" stroke-width="2" stroke-miterlimit="10" cx="239" cy="48.4" r=".3"/><path fill="none" stroke="#000" stroke-width="2" stroke-linecap="round" stroke-miterlimit="10" d="M238.2 40l-22.8 4.4"/><circle stroke="#000" stroke-width="2" stroke-miterlimit="10" cx="237.9" cy="42.5" r=".3"/><path fill="none" stroke="#000" stroke-width="2" stroke-linecap="round" stroke-miterlimit="10" d="M237.1 34.1l-22.9 4.4"/><circle stroke="#000" stroke-width="2" stroke-miterlimit="10" cx="236.7" cy="36.7" r=".3"/><path fill="none" stroke="#000" stroke-width="2" stroke-linecap="round" stroke-miterlimit="10" d="M235.9 28.3l-22.8 4.4"/><circle stroke="#000" stroke-width="2" stroke-miterlimit="10" cx="235.6" cy="30.8" r=".3"/><path fill="none" stroke="#000" stroke-width="2" stroke-linecap="round" stroke-miterlimit="10" d="M234.8 22.4l-22.9 4.4"/><circle stroke="#000" stroke-width="2" stroke-miterlimit="10" cx="234.4" cy="25" r=".3"/><path fill="none" stroke="#000" stroke-width="2" stroke-miterlimit="10" d="M226.6 16.9c-.1-.4-.3-.6-.7-.8v-.2c-.1-.7-.8-1.1-1.5-1-.2 0-.3.1-.5.2-.3-1.2-1.4-1.9-2.6-1.6-.7.2-1.3.7-1.6 1.3h-.7c-1 .2-1.6 1.2-1.4 2.2 0 .1.1.3.1.4-.4.3-.5.8-.4 1.2.1.7.8 1.1 1.5 1l6.9-1.5c.7-.1 1-.7.9-1.2z"/></g><path d="M206.8 67.3s.2-.1.5-.2c.4-.1.9-.3 1.6-.5 1.4-.4 3.4-.7 5.8-1.1 2.4-.4 5.2-.8 8.2-1.3 1.5-.2 3-.5 4.5-.9 1.5-.3 3.1-.7 4.7-1.1 1.6-.4 3.1-.7 4.7-1.1l4.5-1.2c1.5-.4 2.9-.8 4.2-1.2 1.3-.4 2.6-.7 3.8-1.1 2.3-.7 4.3-1.2 5.7-1.6.7-.2 1.2-.3 1.6-.4.4-.1.6-.2.6-.2s-.7.4-2 1-3.2 1.4-5.4 2.3c-2.3.9-4.9 1.9-7.8 2.8-1.5.5-3 .9-4.5 1.3s-3.1.8-4.7 1.2c-1.6.3-3.2.7-4.8 1-1.6.3-3.2.5-4.7.7-1.5.2-3 .3-4.4.4-1.4.1-2.7.2-3.9.3-2.4.1-4.4.3-5.8.4-1.6.3-2.4.5-2.4.5z"/><path fill="#cf00ab" d="M59.5 29.9v10.5l50.3 8 5.7.7-.7 1.9 3.7-7.9-21.7-10.4-25-2.8z"/><g fill="#fff"><path d="M68.6 36c-.2 1.4-1.1 2.3-2.7 2.2l-2.5-.1c-.1 0-.1 0-.1-.1l.8-5.9c0-.1.1-.1.1-.1l2.8.1c1.1 0 1.8.7 1.7 1.7v.2l-.1 2zm-.7-1.9v-.2c0-.6-.3-.9-1-.9l-1.8-.1-.6 4.4 1.6.1c.9 0 1.4-.5 1.6-1.5l.2-1.8zM73.4 38.5c0 .1-.1.1-.1.1h-.7c-.1 0-.1 0-.1-.1 0 0 0-.2.2-1.2l-.5.6c-.3.4-.7.7-1.5.6h-.2c-.7 0-1.1-.5-1-1.2v-.2l.2-1.3c.2-1.1.9-1.9 2.1-1.8h.1c.4 0 .9.2 1.2.4v-.2c0-.1.1-.1.1-.1h.7s.1 0 .1.1l-.6 4.3zm-1.5-1.3l.9-1 .2-.9c-.3-.2-.6-.3-1-.4h-.1c-.7 0-1.1.4-1.2 1.1l-.2 1.2v.1c0 .2.1.4.4.5h.1c.3 0 .6-.3.9-.6zM77.1 38.8c0 .1-.1.1-.1.1l-.7-.1c-.8-.1-1.2-.5-1.1-1.2v-.2l.4-2.1-.9-.2c-.1 0-.1-.1-.1-.1l.1-.5c0-.1.1-.1.1-.1l.9.1.1-.4c0-.1 0-.1.1-.2l.7-.3h.1c.1 0 .1.1.1.1l-.2.9 1.1.1c.1 0 .1.1.1.1l-.1.7c0 .1-.1.1-.1.1l-1.1-.1c-.1.8-.4 2-.4 2.2 0 .2.1.4.4.4l.6.1s.1 0 .1.1l-.1.5zM81.9 39.3c0 .1-.1.1-.1.1l-.7-.1c-.1 0-.1 0-.1-.1 0 0 0-.2.2-1.2l-.5.6c-.4.4-.8.6-1.5.6H79c-.6-.1-1.1-.5-1-1.2v-.1l.3-1.3c.2-1.1 1-1.8 2.2-1.7h.1c.4 0 .9.2 1.2.5v-.2c0-.1.1-.1.1-.1l.7.1s.1 0 .1.1l-.8 4zm-1.4-1.4l1-1 .2-.9c-.3-.2-.6-.4-1-.4h-.1c-.7-.1-1.1.3-1.2 1l-.4 1.3v.1c0 .2.1.4.3.5h.1c.5 0 .7-.2 1.1-.6zM90.6 35.2c0 .1-.1.1-.1.1l-2.2-.3c-.5-.1-.9 0-1 .4 0 0-.1.2-.1.3-.1.4.3.7.9.9l1 .5c.7.3 1.1.8 1 1.5 0 .1 0 .2-.1.3l-.1.4c-.2.8-1 1.2-2.2 1l-2.4-.4c-.1 0-.1-.1-.1-.1l.1-.6c0-.1.1-.1.1-.1l2.2.3c.6.1 1.1 0 1.2-.4 0-.1.1-.3.1-.4.1-.4-.2-.6-.7-.8l-1.1-.5c-.7-.3-1.2-.8-1.1-1.6 0-.1 0-.2.1-.3l.1-.2c.3-.9 1-1.2 2.2-1l2.1.3.1.1v.6zM93 41c0 .1-.1.1-.1.1l-.7-.1c-.8-.1-1.1-.6-1-1.3v-.2l.6-2.1-.8-.3c-.1 0-.1-.1-.1-.1l.1-.5c0-.1.1-.1.1-.1l.9.2.1-.4c0-.1 0-.1.2-.2l.7-.3h.1c.1 0 .1.1.1.1l-.2.9 1.1.2c.1 0 .1.1.1.1l-.2.7c0 .1-.1.1-.1.1l-1.1-.2c-.2.8-.6 2-.6 2.2 0 .2.1.4.3.5l.6.1s.1 0 .1.1l-.2.5zM98.6 38.4c-.1 0-.1 0 0 0l-.8.4h-.1l-.1-.1c-.1-.2-.1-.4-.3-.4h-.1c-.2 0-.3.1-.5.3l-1.1.9-.6 1.9c0 .1-.1.1-.1.1l-.7-.2c-.1 0-.1-.1-.1-.1l1.3-3.9c0-.1.1-.1.1-.1l.7.2.1.1-.3 1 .7-.6c.3-.3.6-.4 1-.3h.1c.4.1.6.3.8.7-.1 0 0 0 0 .1zM99 40.9c-.1.5.1.7.6.8l1.8.5.1.1-.2.5-.1.1-1.9-.5c-.9-.2-1.4-.9-1.1-1.7 0-.1.1-.2.1-.2l.3-.8c.4-1.1 1.3-1.7 2.4-1.3l.6.2c.8.2 1.2.7 1.1 1.3 0 0-.1.2-.1.3-.3.8-.9.8-1.7.8l-1.9-.1zm.2-.7h1.3c.5 0 .9 0 1-.4v-.1c0-.2-.1-.4-.3-.4l-.6-.2c-.7-.2-1.1.1-1.4.8v.3zM105.9 44.4l-.1.1-.7-.2c-.1 0-.1-.1-.1-.1s.1-.1.5-1.1l-.6.5c-.4.3-.9.5-1.6.3h-.1c-.6-.2-.9-.7-.7-1.4 0 0 0-.1.1-.1l.4-1.4c.5-1.1 1.3-1.6 2.5-1.2h.1c.4.1.8.4 1 .7l.1-.2.1-.1.7.2.1.1-1.7 3.9zm-1.1-1.7l1.2-.7.4-.9c-.2-.3-.5-.5-.9-.6h-.1c-.6-.2-1.2.1-1.4.8l-.5 1.1v.1c-.1.2 0 .5.2.5h.1c.3.2.6 0 1-.3zM109.3 42.7l.8-.6c.5-.4.9-.6 1.5-.4l.2.1c.6.2.8.6.6 1.2 0 .1 0 .1-.1.2l-.2.4.8-.6c.5-.4.9-.6 1.5-.4l.2.1c.6.2.8.6.6 1.2 0 .1 0 .1-.1.2l-1.3 2.9-.1.1-.7-.2c-.1 0-.1-.1-.1-.1.4-1 1.3-2.9 1.3-3 .1-.2 0-.3-.1-.3h-.1c-.2-.1-.5.1-1 .5l-1.4.9-.6 1.1-.1.1-.7-.2c-.1 0-.1-.1-.1-.1.4-1 1.3-3 1.3-3 .1-.2 0-.3-.1-.3h-.1c-.2-.1-.5.1-1 .5l-1.4.9-.6 1.3-.1.1-.7-.2c-.1 0-.1-.1-.1-.1l1.7-4 .1-.1.7.2.1.1-.6 1.5z"/></g></svg>