<svg xmlns="http://www.w3.org/2000/svg" xmlns:xlink="http://www.w3.org/1999/xlink" viewBox="0 0 270.5 96.5" enable-background="new 0 0 270.5 96.5"><path fill="none" stroke="#000" stroke-width="2" stroke-miterlimit="10" d="M119.9 89.7h77.3c2.2 0 4.1-1.8 4.1-4.1v-37"/><defs><path id="a" d="M270.5-14.3v111L.5 94.8V-16.3"/></defs><clipPath id="b"><use xlink:href="#a" overflow="visible"/></clipPath><path fill="none" stroke="#cf00ab" stroke-width="51" stroke-miterlimit="10" d="M285.5 38.2c-24.6 0-64.2-2.4-89-.5-22.9 1.8-43.2 7.1-66.7 7.5-17.4.3-35-.4-51.6-4.9-30.6-8.3-53.7-10.6-83-5 0 0-103.8-7.8-48.1 34.7" clip-path="url(#b)"/><path fill="none" stroke="#fff" stroke-miterlimit="10" stroke-dasharray="18,4" d="M275.5 52.2c-23.6 0-61.5-2.4-85.3-.5-21.9 1.8-41.4 7.1-63.9 7.5-16.6.3-33.5-.4-49.5-4.9-29.4-8.3-51.5-10.6-79.5-5 0 0-99.5-7.8-46.1 34.7M275.5 25.1c-23.6 0-61.5-2.4-85.3-.5-21.9 1.8-41.4 7.1-63.9 7.5-16.6.3-33.5-.4-49.5-4.9-29.4-8.3-51.5-10.6-79.5-5 0 0-99.5-7.8-46.1 34.7M275.5 39.2c-23.6 0-61.5-2.4-85.3-.5-21.9 1.8-41.4 7.1-63.9 7.5-16.6.3-33.5-.4-49.5-4.9-29.4-8.3-51.5-10.6-79.5-5 0 0-99.5-7.8-46.1 34.7" clip-path="url(#b)"/><path clip-path="url(#b)" fill="#cf00ab" d="M24 37.1l26.7 3 26.5 7.5 3.7-11.7-50.7-7.2h-6z"/><g fill="#fff" clip-path="url(#b)"><path d="M32.2 33.8c-.1 1.4-1 2.4-2.6 2.4h-2.5c-.1 0-.1 0-.1-.1l.6-6c0-.1.1-.1.1-.1h2.8c1.1 0 1.8.6 1.8 1.7v.3l-.1 1.8zm-.8-1.8v-.2c0-.6-.4-.9-1-.9h-1.8l-.5 4.5h1.6c.9 0 1.4-.6 1.5-1.6l.2-1.8zM37 36.3c0 .1-.1.1-.1.1h-.7c-.1 0-.1 0-.1-.1 0 0 0-.2.2-1.2l-.5.6c-.3.4-.7.7-1.5.7h-.2c-.7 0-1.1-.5-1.1-1.2V35l.2-1.3c.2-1.2.9-1.9 2.1-1.9h.1c.4 0 .9.2 1.2.4V32c0-.1.1-.1.1-.1h.7s.1 0 .1.1l-.5 4.3zM35.5 35l.9-1 .1-.9c-.3-.2-.6-.3-1-.3h-.1c-.7 0-1.1.4-1.2 1.1l-.1 1.1v.1c0 .3.1.4.4.5h.1c.3 0 .6-.3.9-.6zM40.7 36.6c0 .1-.1.1-.1.1h-.7c-.8-.1-1.2-.5-1.1-1.2v-.2l.4-2.2-.9-.2c-.1 0-.1-.1-.1-.1l.1-.5c0-.1.1-.1.1-.1l.9.1.1-.4c0-.1 0-.1.1-.2l.7-.3h.1c.1 0 .1.1.1.1l-.2.9 1.1.1c.1 0 .1.1.1.1l-.1.7c0 .1-.1.1-.1.1l-1.1-.1c-.1.8-.4 2.1-.4 2.3 0 .2.1.4.4.4h.6s.1 0 .1.1l-.1.5zM45.5 37c0 .1-.1.1-.1.1l-.8-.1c-.1 0-.1 0-.1-.1 0 0 0-.2.2-1.2l-.5.6c-.4.4-.8.7-1.5.6h-.2c-.6-.1-1.1-.5-1-1.2v-.2l.2-1.3c.2-1.2 1-1.9 2.2-1.7h.1c.4 0 .9.2 1.2.5v-.2c0-.1.1-.1.1-.1l.7.1s.1 0 .1.1l-.6 4.1zM44 35.6l1-1 .2-.9c-.3-.2-.6-.4-1-.4h-.1c-.7-.1-1.1.4-1.2 1l-.2 1.2v.1c0 .3.1.5.3.5h.1c.3.1.6-.2.9-.5zM54.2 32.8c0 .1-.1.1-.1.1l-2.2-.3c-.5-.1-.9 0-1 .4 0 0-.1.2-.1.3-.1.4.3.7.9.9l1 .5c.7.3 1.1.8 1 1.5 0 .1 0 .2-.1.3l-.1.4c-.2.9-1 1.2-2.2 1l-2.4-.4c-.1 0-.1-.1-.1-.1l.1-.6c0-.1.1-.1.1-.1l2.2.3c.6.1 1.1 0 1.2-.4 0-.1.1-.3.1-.4.1-.4-.2-.6-.7-.8l-1.1-.5c-.7-.3-1.2-.9-1.1-1.7 0-.1 0-.2.1-.3l.1-.2c.3-1 1-1.2 2.3-1l2.1.3.1.1-.1.7zM56.6 38.7c0 .1-.1.1-.1.1l-.7-.1c-.8-.1-1.1-.6-1-1.3v-.2l.6-2.1-.8-.3c-.1 0-.1-.1-.1-.1l.1-.5c0-.1.1-.1.1-.1l.9.2.1-.4c0-.1 0-.1.2-.2l.7-.3h.1c.1 0 .1.1.1.1l-.3.9 1.1.2c.1 0 .1.1.1.1l-.2.7c0 .1-.1.1-.1.1l-1.1-.2c-.2.8-.6 2-.6 2.2 0 .2.1.4.3.5l.6.1s.1 0 .1.1l-.1.5zM62.1 36l-.8.4h-.1l-.1-.1c-.1-.1-.1-.3-.3-.3h-.1c-.2 0-.3.1-.5.3l-1.1 1-.6 1.8c0 .1-.1.1-.1.1l-.7-.2c-.1 0-.1-.1-.1-.1l1.2-4c0-.1.1-.1.1-.1l.7.1.1.1-.3 1 .6-.6c.3-.3.6-.4 1-.3h.1c.4.1.6.3.8.7.2.1.2.1.2.2zM62.5 38.5c-.1.5.1.7.6.8l1.9.4.1.1-.2.6c0 .1-.1.1-.1.1l-2-.5c-.9-.2-1.4-.8-1.2-1.7v-.2l.3-.9c.3-1.1 1.2-1.7 2.4-1.5l.6.1c.8.2 1.3.6 1.1 1.3 0 0 0 .2-.1.3-.3.8-.9.8-1.6.9l-1.8.2zm.3-.8l1.3-.1c.5 0 .9-.1 1-.4v-.1c0-.2-.1-.4-.3-.4l-.6-.1c-.7-.1-1.1.1-1.3.9l-.1.2zM69.7 41.5c0 .1-.1.1-.1.1l-.7-.2c-.1 0-.1-.1-.1-.1s.1-.2.4-1.1l-.6.5c-.4.4-.8.6-1.6.4h-.1c-.6-.2-1-.7-.8-1.4v-.1l.4-1.2c.4-1.1 1.2-1.7 2.4-1.4h.1c.4.1.8.4 1.1.6l.1-.2c0-.1.1-.1.1-.1l.7.2.1.1-1.4 3.9zm-1.2-1.6l1.1-.8.3-.9c-.3-.3-.5-.4-1-.5h-.1c-.7-.2-1.1.2-1.4.9l-.4 1.2v.1c-.1.2 0 .5.3.5h.1c.4 0 .7-.2 1.1-.5zM72.9 39.6l.7-.7c.5-.5.9-.7 1.4-.5l.2.1c.6.2.8.5.6 1.2 0 .1 0 .1-.1.2l-.2.4.7-.7c.5-.5.9-.7 1.4-.5l.2.1c.6.2.8.5.6 1.2 0 .1 0 .1-.1.2l-1.1 3-.1.1-.7-.2c-.1 0-.1-.1-.1-.1.4-1 1.1-3 1.2-3.1 0-.2 0-.3-.1-.3h-.1c-.2-.1-.5.2-1 .5l-1.3 1-.5 1.4-.1.1-.4-.3c-.1 0-.1-.1-.1-.1.4-1 1.2-3.1 1.2-3.1 0-.2 0-.3-.1-.3h-.1c-.2-.1-.5.2-1 .5l-1.3 1-.6 1.4-.1.1-.8-.2c-.1 0-.1-.1-.1-.1l1.5-3.9c0-.1.1-.1.1-.1l.7.2.1.1-.5 1.4z"/></g><path clip-path="url(#b)" fill="#cf00ab" d="M15 51.5v-21l-1.5-19.3-29.7 6.3 4.4 36.2zM270.5 57.1l-14.2-2-1.4-24.3V16.7l55.9 4.1-17.2 32.9z"/><path fill="#fff" stroke="#000" stroke-width="2" stroke-miterlimit="10" d="M209.5 70.7H193c-2.6 0-4.8-2.1-4.8-4.8V10.4c0-2.6 2.1-4.8 4.8-4.8h16.5c2.6 0 4.8 2.1 4.8 4.8v55.5c-.1 2.7-2.2 4.8-4.8 4.8z"/><path fill="#cf00ab" d="M195 13h12.4v50.3H195z"/><g fill="none" stroke="#fff" stroke-miterlimit="10"><path d="M195 24.1h12.4M195 37.2h12.4M195 50.2h12.4"/></g><path fill="none" stroke="#000" stroke-width="2" stroke-miterlimit="10" d="M195 13h12.4v50.3H195z"/><g fill="#fff" stroke="#000000" stroke-width="2" stroke-linecap="round" stroke-miterlimit="10"><path d="M168.1 86.6H99.5c-.8 0-1.4-.6-1.4-1.4V41.6c0-.8.6-1.4 1.4-1.4H168c.8 0 1.4.6 1.4 1.4v43.5c.1.8-.6 1.5-1.3 1.5zM103.5 45.1h60.6v36.6h-60.6zM172.5 92.9l-77.4-.2c-1.5 0-2.8-1.2-2.8-2.8v-3.2l82.9.2v3.2c0 1.6-1.2 2.8-2.7 2.8z"/></g><g fill="#000000"><path d="M107.2 58v-.7l2.3-1.2-2.3-1.2v-.7l2.7 1.4v.9l-2.7 1.5zM112.5 58.1h-.4c-.1 0-.2-.1-.3-.1v1.2h-.9v-4.4h.9v.6h.2c.1-.2.2-.3.4-.5.2-.1.4-.2.6-.2.3 0 .5.1.7.3.2.2.3.5.3.8v1c0 .4-.1.7-.4.9-.4.3-.7.4-1.1.4zm-.2-.7c.2 0 .3 0 .4-.1.1-.1.1-.2.1-.4V56c0-.2 0-.3-.1-.4s-.2-.1-.3-.1c-.1 0-.2 0-.4.1l-.3.3v1.4c.1.1.2.1.3.1h.3zM114.8 58v-3.3h.9v.6h.2c.1-.2.2-.4.4-.5.2-.1.4-.1.6-.1.3 0 .5.1.6.2s.2.4.2.7v.6h-.8v-.3c0-.2 0-.3-.1-.4s-.2-.1-.3-.1c-.1 0-.3 0-.4.1l-.3.3V58h-1zM119.8 58.1c-.5 0-.8-.1-1.1-.3-.3-.2-.4-.5-.4-.9V56c0-.4.1-.7.4-.9.3-.2.6-.3 1.1-.3.5 0 .8.1 1.1.3.3.2.4.5.4.9v.9c0 .4-.1.7-.4.9-.3.2-.6.3-1.1.3zm0-.7c.2 0 .3 0 .4-.1.1-.1.1-.2.1-.5V56c0-.2 0-.4-.1-.5-.1-.1-.2-.1-.4-.1s-.3 0-.4.1c-.1.1-.1.3-.1.5v.8c0 .2 0 .4.1.5.1.1.2.1.4.1zM123.5 58.1c-.2 0-.5 0-.7-.1s-.5-.2-.7-.3v-4h.9v1.7h.2c.1-.2.2-.4.4-.5.2-.1.4-.2.6-.2.3 0 .5.1.7.3.2.2.3.5.3.8v1c0 .4-.1.7-.4.9-.4.3-.8.4-1.3.4zm0-.7c.2 0 .3 0 .4-.1.1-.1.1-.2.1-.4V56c0-.2 0-.3-.1-.4s-.2-.1-.3-.1c-.1 0-.2 0-.4.1l-.3.3v1.4c.1.1.2.1.3.1h.3zM126.7 58.1c-.3 0-.5-.1-.7-.2-.2-.2-.3-.4-.3-.7 0-.3.1-.5.3-.7.2-.2.5-.2.8-.2h.8v-.4c0-.2 0-.3-.1-.3-.1-.1-.2-.1-.4-.1s-.3 0-.4.1c-.1.1-.2.2-.2.4l-.7-.1c.1-.4.2-.6.4-.8.2-.2.5-.2.9-.2s.8.1 1 .3c.2.2.4.4.4.8v1c0 .2 0 .3.1.3h.4v.7c-.3.1-.5.1-.7 0-.2-.1-.3-.2-.4-.5h-.1c-.1.2-.3.3-.5.4-.1.1-.4.2-.6.2zm.2-.6c.1 0 .3 0 .4-.1s.2-.1.3-.2v-.5h-.7c-.1 0-.2 0-.3.1s-.1.2-.1.3c0 .1 0 .2.1.3.1.1.2.1.3.1zM131 58.1c-.2 0-.5 0-.7-.1s-.5-.2-.7-.3v-4h.9v1.7h.2c.1-.2.2-.4.4-.5.2-.1.4-.2.6-.2.3 0 .5.1.7.3.2.2.3.5.3.8v1c0 .4-.1.7-.4.9-.5.3-.8.4-1.3.4zm0-.7c.2 0 .3 0 .4-.1.1-.1.1-.2.1-.4V56c0-.2 0-.3-.1-.4s-.2-.1-.3-.1c-.1 0-.2 0-.4.1l-.3.3v1.4c.1.1.2.1.3.1h.3zM133.3 58v-.7h1v-1.9h-1v-.7h1.9v2.6h1v.7h-2.9zm1.5-3.8c-.2 0-.3 0-.4-.1-.1-.1-.2-.2-.2-.3v-.1c0-.1.1-.2.2-.3.1-.1.3-.1.4-.1.2 0 .3 0 .4.1.1.1.2.2.2.3v.1c0 .1-.1.2-.2.3-.1.1-.2.1-.4.1zM137.1 58v-.7h1v-3h-1v-.7h1.9v3.7h1v.7h-2.9zM140.8 58v-.7h1v-1.9h-1v-.7h1.9v2.6h1v.7h-2.9zm1.4-3.8c-.2 0-.3 0-.4-.1-.1-.1-.2-.2-.2-.3v-.1c0-.1.1-.2.2-.3.1-.1.3-.1.4-.1.2 0 .3 0 .4.1.1.1.2.2.2.3v.1c0 .1-.1.2-.2.3 0 .1-.2.1-.4.1zM145.9 58.1c-.3 0-.6 0-.8-.1s-.5-.2-.7-.3l.2-.6c.2.1.4.2.7.3.2.1.5.1.7.1.2 0 .3 0 .4-.1s.1-.1.1-.3c0-.1 0-.2-.1-.3-.1-.1-.3-.1-.5-.1-.4 0-.8-.1-1-.3-.2-.1-.3-.4-.3-.7 0-.3.1-.6.4-.8.2-.2.6-.3 1-.3.2 0 .5 0 .7.1.2.1.5.2.7.3l-.2.6-.6-.3c-.2-.1-.4-.1-.5-.1-.1 0-.3 0-.3.1-.1.1-.1.1-.1.3 0 .1.1.2.2.3.1 0 .3.1.6.1.4.1.7.2.9.3.2.2.3.4.3.7 0 .3-.1.6-.4.8-.6.2-.9.3-1.4.3zM150.2 58.1c-.4 0-.7-.1-1-.3-.2-.2-.3-.5-.3-.9v-1.5h-.8v-.7h.8v-1.1h.9v1.1h1.2v.7h-1.2v1.4c0 .2 0 .4.1.5.1.1.2.1.4.1h.3s.2 0 .3-.1l.1.7c-.1 0-.2.1-.4.1h-.4zM151.9 58v-.7h1v-1.9h-1v-.7h1.9v2.6h1v.7h-2.9zm1.5-3.8c-.2 0-.3 0-.4-.1s-.2-.2-.2-.3v-.1c0-.1.1-.2.2-.3.1-.1.3-.1.4-.1s.3 0 .4.1c.1.1.2.2.2.3v.1c0 .1-.1.2-.2.3s-.2.1-.4.1zM157.2 58.1c-.5 0-.9-.1-1.1-.3-.3-.2-.4-.5-.4-.9V56c0-.4.1-.7.4-.9s.6-.3 1.1-.3c.5 0 .8.1 1 .3.2.2.4.5.4.9l-.9.1c0-.2-.1-.4-.2-.5-.1-.1-.2-.1-.4-.1s-.4 0-.5.1c-.1.1-.1.3-.1.5v.7c0 .2 0 .4.1.5.1.1.3.1.5.1s.3 0 .4-.1c.1-.1.1-.2.2-.4l.9.1c0 .3-.1.6-.4.8-.1.2-.5.3-1 .3zM109.5 65.2l-.3-1.1H108l-.3 1.1h-.8l1.2-4.4h1.1l1.2 4.4h-.9zm-.4-1.8l-.4-1.8-.5 1.8h.9zM110.9 65.2v-.7h1v-3h-1v-.7h1.9v3.7h1v.7h-2.9zM117.8 65.4c0 .3-.1.5-.3.7s-.5.3-.9.3h-.9c-.4 0-.7-.1-.9-.2s-.3-.3-.3-.6c0-.2.1-.3.2-.4s.2-.2.4-.2v-.1c-.1 0-.2-.1-.3-.2-.1-.1-.1-.2-.1-.4s.1-.3.2-.5c.1-.1.3-.2.5-.2v-.1c-.2-.1-.3-.1-.4-.2-.1-.1-.1-.2-.1-.4 0-.3.1-.5.3-.6.2-.2.5-.2.9-.2h1.8v.6l-.9-.1v.1c.1 0 .2.1.3.2s.1.2.1.3v.1c0 .3-.1.5-.3.6-.2.1-.5.2-.9.2h-.5c-.1 0-.2 0-.3.1-.1 0-.1.1-.1.2s0 .2.1.2.2.1.3.1h1c.3 0 .6.1.8.2.1 0 .3.2.3.5zm-2.2.4h1c.1 0 .2 0 .3-.1.1 0 .1-.1.1-.3 0-.1 0-.2-.1-.3s-.2-.1-.3-.1h-1.3v.3c0 .1 0 .2.1.3 0 .2.1.2.2.2zm.4-2.3c.2 0 .3 0 .4-.1s.1-.2.1-.3v-.2c0-.1 0-.2-.1-.3s-.2-.1-.4-.1-.3 0-.4.1-.1.2-.1.3v.2c0 .1 0 .2.1.3.1.1.2.1.4.1zM119.8 65.3c-.5 0-.8-.1-1.1-.3-.3-.2-.4-.5-.4-.9v-.9c0-.4.1-.7.4-.9.3-.2.6-.3 1.1-.3.5 0 .8.1 1.1.3.3.2.4.5.4.9v.9c0 .4-.1.7-.4.9-.3.2-.6.3-1.1.3zm0-.7c.2 0 .3 0 .4-.1.1-.1.1-.2.1-.5v-.8c0-.2 0-.4-.1-.5-.1-.1-.2-.1-.4-.1s-.3 0-.4.1c-.1.1-.1.3-.1.5v.8c0 .2 0 .4.1.5.1.1.2.1.4.1zM122.2 65.2V62h.9v.6h.2c.1-.2.2-.4.4-.5.2-.1.4-.1.6-.1.3 0 .5.1.6.2s.2.4.2.7v.6h-.8v-.3c0-.2 0-.3-.1-.4-.1-.1-.2-.1-.3-.1-.1 0-.3 0-.4.1l-.3.3v2.2h-1zM125.8 65.2v-.7h1v-1.9h-1V62h1.9v2.6h1v.7h-2.9zm1.5-3.8c-.2 0-.3 0-.4-.1-.1-.1-.2-.2-.2-.3 0-.1.1-.2.2-.3.1-.1.3-.1.4-.1.2 0 .3 0 .4.1.1.1.2.2.2.3v.1c0 .1-.1.2-.2.3h-.4zM131.6 65.3c-.4 0-.7-.1-1-.3-.2-.2-.3-.5-.3-.9v-1.5h-.8V62h.8v-1.1h.9V62h1.2v.7h-1.2V64c0 .2 0 .4.1.5.1.1.2.1.4.1h.3c.1 0 .2 0 .3-.1l.1.7c-.1 0-.2.1-.4.1h-.4zM133.2 65.2v-4.4h.9v1.7h.2c.1-.2.2-.4.4-.5.2-.1.4-.2.6-.2.3 0 .5.1.7.3.2.2.3.4.3.7v2.3h-.9V63c0-.2 0-.3-.1-.4-.1-.1-.2-.1-.3-.1-.1 0-.2 0-.4.1-.1.1-.3.2-.4.4v2.1h-1zM137.6 62.9v2.3h-.8V62h.7v.4h.1c.1-.2.1-.3.2-.4.1-.1.2-.1.3-.1s.2 0 .3.1c.1.1.2.2.2.4h.1c.1-.2.1-.3.3-.4.1-.1.2-.1.4-.1s.3.1.4.2c.1.1.1.3.1.6v2.5h-.8v-2.6c0-.1-.1-.1-.1-.1-.1 0-.1 0-.2.1s-.1.2-.2.3v2.3h-.7v-2.6c0-.1-.1-.1-.1-.1-.1 0-.1 0-.2.1.1.1 0 .2 0 .3z"/></g><path fill="#000000" d="M103.5 45.1h60.6v5.1h-60.6z"/></svg>