<svg xmlns="http://www.w3.org/2000/svg" viewBox="0 0 135 120" enable-background="new 0 0 135 120"><g><g fill="#cf00ab"><path d="M60.8 3h14.8v16.2H60.8zM61.3 3.5h13.8v15.2H61.3zM61.3 3.5h13.8v15.2H61.3z"/></g><g fill="#cf00ab"><path d="M60.8 18.9h14.8v16.2H60.8zM61.3 19.4h13.8v15.2H61.3zM61.3 19.4h13.8v15.2H61.3z"/></g><g fill="#cf00ab"><path d="M60.8 50.6h14.8v16.2H60.8zM61.3 51.1h13.8v15.2H61.3zM61.3 51.1h13.8v15.2H61.3z"/></g><g fill="#cf00ab"><path d="M60.8 82.3h14.8v16.2H60.8zM61.3 82.9h13.8v15.2H61.3zM61.3 82.9h13.8v15.2H61.3z"/></g><path fill="none" stroke="#000" stroke-width="2" stroke-miterlimit="10" d="M61 3h14.2v110.6H61z"/><g fill="none" stroke="#000" stroke-width="2" stroke-miterlimit="10"><path d="M61 18.8h14.2M61 34.6h14.2M61 50.4h14.2M61 66.2h14.2M61 82h14.2M61 97.8h14.2"/></g><circle cx="116.4" cy="51.6" r="8.6"/><path d="M109.1 17.6H126v16.9h-16.9zM109.1 66.2v21.4L126 76.5z"/><path fill="none" stroke="#000" stroke-width="2" stroke-linejoin="bevel" stroke-miterlimit="10" d="M107.8 51.5M104.3 51.5M104.3 76.9"/><path d="M8.4 27.8l6.4-3.2 1-7 5 5.1 7.1-1.2-3.3 6.3 3.3 6.4-7.1-1.3-5 5.2-1-7.1zM9.1 71.1l9-5 9.1 5v10.1l-9.1 5-9-5zM27.2 104l-.1.1h-.6c-.1 0-.1 0-.1-.1l.3-2.6v-.3c0-.2-.1-.3-.3-.3h-.1c-.3 0-.5.3-.9.8l-.9 1.2-.1 1.2s0 .1-.1.1h-.7s-.1 0-.1-.1l.4-3.7s0-.1.1-.1h.7s.1 0 .1.1l-.1 1.4.5-.8c.3-.5.6-.8 1.2-.8h.2c.5 0 .9.3.9.9v.2l-.3 2.8zM29.1 102.8c0 .5.2.6.7.6h1.7s.1 0 .1.1v.5s0 .1-.1.1h-1.8c-.8 0-1.4-.4-1.4-1.3v-.2l.1-.8c.1-1 .7-1.7 1.8-1.7h.6c.8 0 1.2.3 1.2.9v.3c-.1.7-.6.9-1.2 1.1l-1.7.4zm.1-.7l1.1-.3c.4-.1.8-.2.8-.5v-.1c0-.2-.1-.3-.4-.3h-.5c-.6 0-.9.3-1 1v.2zM32.8 100.3l.1-.1h.6s.1 0 .1.1l-.3 2.7v.1c0 .2.1.3.3.3h.1c.3 0 .5-.2.7-.5l.8-1.2.2-1.4.1-.1h.6s.1 0 .1.1l-.3 2.6v.3c0 .2.1.3.4.3h.1c.4 0 .7-.3.9-.6.3-.4.4-1.2.4-1.9l.1-.6s0-.1.1-.1h.7s.1 0 .1.1c0 0 0 .2-.1.7-.1 1-.2 1.7-.6 2.3-.4.5-.8.8-1.6.8H36c-.6 0-1-.4-1-.9V103l-.2.4c-.2.4-.5.8-1.1.8h-.3c-.5 0-.9-.3-.9-.9v-.2l.3-2.8zM23.4 112c-.1 1-.7 1.7-1.8 1.7h-.5c-.8 0-1.4-.4-1.4-1.3v-.2l.1-.9c.1-1 .7-1.7 1.8-1.7h.5c.8 0 1.4.4 1.4 1.3v.2l-.1.9zm-.7-.9v-.1c0-.4-.2-.6-.7-.6h-.3c-.6 0-.9.4-1 1l-.1.9v.1c0 .4.2.6.7.6h.3c.6 0 .9-.4 1-1l.1-.9zM25.5 110.9l.4-.6c.3-.4.6-.6 1.3-.6h.1c.6 0 1 .4 1 1v.2l-.1 1c-.1 1-.7 1.7-1.8 1.7h-1.9s-.1 0-.1-.1c0 0 0-.1.6-5.5 0 0 0-.1.1-.1h.7s.1 0 .1.1l-.4 2.9zm-.1 1l-.1 1h1.1c.6 0 .9-.4 1-1 0-.4.1-1 .1-1.1 0-.2-.1-.4-.3-.4h-.1c-.4 0-.6.2-.9.6l-.8.9zM30.3 113.3c-.1.7-.3.9-.8 1.3l-.6.5h-.2l-.4-.5v-.2l.7-.4c.2-.2.5-.3.5-.7l.3-2.7-.8-.2c-.1 0-.1 0-.1-.1v-.4s0-.1.1-.1h1.6s.1 0 .1.1l-.4 3.4zm.6-4.5s-.1 0 0 0l-.9.1c-.1 0-.1 0-.1-.1l.1-.8.1-.1h.8s.1 0 .1.1l-.1.8zM32.3 112.4c0 .5.2.6.7.6h1.7s.1 0 .1.1v.5s0 .1-.1.1h-1.8c-.8 0-1.4-.4-1.4-1.3v-.2l.1-.8c.1-1 .7-1.7 1.8-1.7h.6c.8 0 1.2.3 1.2.9v.3c-.1.7-.6.9-1.2 1.1l-1.7.4zm.1-.7l1.1-.3c.4-.1.8-.2.8-.5v-.1c0-.2-.1-.3-.4-.3h-.5c-.6 0-.9.3-1 1v.2zM39.1 111s-.1 0 0 0l-.7.1s-.1 0-.1-.1v-.2c0-.3-.3-.4-.7-.4h-.1c-.6 0-.9.3-1 1l-.1.9v.1c0 .4.2.5.7.5h1.5s.1 0 .1.1v.5s0 .1-.1.1H37c-.8 0-1.4-.4-1.4-1.2v-.2l.1-.8c.1-1 .7-1.7 1.8-1.7h.2c.8 0 1.4.4 1.4 1.1v.2zM41.9 113.6s0 .1 0 0l-.7.1c-.7 0-1.1-.4-1.1-1v-.2l.2-1.9-.8-.1c-.1 0-.1 0-.1-.1v-.5l.1-.1h.8v-.4c0-.1 0-.1.1-.2l.6-.3h.1c.1 0 .1 0 .1.1l-.1.8h1s.1 0 .1.1l-.1.6-.1.1h-1c-.1.7-.2 1.9-.2 2 0 .2.1.4.4.4h.6s.1 0 .1.1v.5zM102.6 100.8c0 .1-.1.1 0 0l-1.8.1c-.3 0-.5.1-.5.3 0 .2.2.3.4.4.3.1.5.1.8.2.6.1 1.1.4 1.1 1v.3c-.1.7-.6 1-1.4 1h-1.8s-.1 0-.1-.1c0 0 0-.2.1-.5 0 0 0-.1.1-.1h1.8c.3 0 .5-.2.5-.4 0-.3-.2-.4-.6-.4-.2 0-.5-.1-.8-.2-.5-.1-.9-.5-.9-1v-.2c0-.6.5-1 1.4-1h1.7s.1 0 .1.1l-.1.5zM104.1 102.8c0 .5.2.6.7.6h1.7s.1 0 .1.1v.5s0 .1-.1.1h-1.8c-.8 0-1.4-.4-1.4-1.3v-.2l.1-.8c.1-1 .7-1.7 1.8-1.7h.6c.8 0 1.2.3 1.2.9v.3c-.1.7-.6.9-1.2 1.1l-1.7.4zm0-.7l1.1-.3c.4-.1.8-.2.8-.5v-.1c0-.2-.1-.3-.4-.3h-.5c-.6 0-.9.3-1 1v.2zM108.1 102.8c0 .5.2.6.7.6h1.7s.1 0 .1.1v.5s0 .1-.1.1h-1.8c-.8 0-1.4-.4-1.4-1.3v-.2l.1-.8c.1-1 .7-1.7 1.8-1.7h.6c.8 0 1.2.3 1.2.9v.3c-.1.7-.6.9-1.2 1.1l-1.7.4zm.1-.7l1.1-.3c.4-.1.8-.2.8-.5v-.1c0-.2-.1-.3-.4-.3h-.5c-.6 0-.9.3-1 1v.2zM115.1 104l-.1.1h-.6c-.1 0-.1 0-.1-.1l.3-2.6v-.3c0-.2-.1-.3-.3-.3h-.1c-.3 0-.5.3-.9.8l-.9 1.2-.1 1.2s0 .1-.1.1h-.7s-.1 0-.1-.1l.4-3.7s0-.1.1-.1h.7s.1 0 .1.1l-.1 1.4.5-.8c.3-.5.6-.8 1.2-.8h.2c.5 0 .9.3.9.9v.2l-.3 2.8zM97.2 110.9l.4-.6c.3-.4.6-.6 1.3-.6h.1c.6 0 1 .4 1 1v.2l-.1 1c-.1 1-.7 1.7-1.8 1.7h-1.9s-.1 0-.1-.1c0 0 0-.1.6-5.5 0 0 0-.1.1-.1h.7s.1 0 .1.1l-.4 2.9zm-.1 1l-.1 1h1.1c.6 0 .9-.4 1-1 0-.4.1-1 .1-1.1 0-.2-.1-.4-.3-.4h-.1c-.4 0-.6.2-.9.6l-.8.9zM101.5 112.4c0 .5.2.6.7.6h1.7s.1 0 .1.1v.5s0 .1-.1.1h-1.8c-.8 0-1.4-.4-1.4-1.3v-.2l.1-.8c.1-1 .7-1.7 1.8-1.7h.6c.8 0 1.2.3 1.2.9v.3c-.1.7-.6.9-1.2 1.1l-1.7.4zm.1-.7l1.1-.3c.4-.1.8-.2.8-.5v-.1c0-.2-.1-.3-.4-.3h-.5c-.6 0-.9.3-1 1v.2zM105.6 109.3c.1-.8.7-1.3 1.6-1.3h.4s.1 0 .1.1l-.1.5c0 .1 0 .1-.1.1h-.3c-.5 0-.8.2-.9.7v.3h.9s.1 0 .1.1c0 0 0 .1-.1.6l-.1.1h-.9l-.3 2.8c-.1 1-.7 1.7-1.8 1.7h-.4s-.1 0-.1-.1l.1-.5c0-.1 0-.1.1-.1h.3c.6 0 .9-.4 1-1l.3-2.8-.8-.2s-.1 0-.1-.1v-.4s0-.1.1-.1h.8l.2-.4zM111.2 112c-.1 1-.7 1.7-1.8 1.7h-.5c-.8 0-1.4-.4-1.4-1.3v-.2l.1-.9c.1-1 .7-1.7 1.8-1.7h.5c.8 0 1.4.4 1.4 1.3v.2l-.1.9zm-.8-.9v-.1c0-.4-.2-.6-.7-.6h-.3c-.6 0-.9.4-1 1l-.1.9v.1c0 .4.2.6.7.6h.3c.6 0 .9-.4 1-1l.1-.9zM115.4 110.3l-.6.5h-.2c-.1-.2-.2-.3-.3-.3h-.1c-.1 0-.2.1-.4.3l-.8 1-.2 1.7s0 .1-.1.1h-.7c-.1 0-.1 0-.1-.1l.4-3.7s0-.1.1-.1h.7s.1 0 .1.1l-.1.9.5-.6c.2-.3.5-.5.8-.5h.1c.4 0 .6.1.8.5.1.1.1.1.1.2zM116.2 112.4c0 .5.2.6.7.6h1.7s.1 0 .1.1v.5s0 .1-.1.1h-1.8c-.8 0-1.4-.4-1.4-1.3v-.2l.1-.8c.1-1 .7-1.7 1.8-1.7h.6c.8 0 1.2.3 1.2.9v.3c-.1.7-.6.9-1.2 1.1l-1.7.4zm.1-.7l1.1-.3c.4-.1.8-.2.8-.5v-.1c0-.2-.1-.3-.4-.3h-.5c-.6 0-.9.3-1 1v.2z"/><path fill="none" stroke="#000" stroke-width="2" stroke-linejoin="bevel" d="M81.2 13.4l23.7 13.1L81.1 53"/><path d="M83 18.3l-1.3-4.6 4.6-1.4-2.5-1.3-4.6 1.3 1.3 4.6zM81.2 47.7l.3 4.8 4.8-.2-2 2.1-4.8.3-.2-4.8z"/><path fill="none" stroke="#000" stroke-width="2" stroke-linejoin="bevel" d="M81.1 32.6l23.6 18.8-24.3 30.5"/><path d="M82.1 37.7l-.6-4.8 4.8-.5-2.3-1.8-4.7.6.5 4.7zM80.2 76.7l.6 4.8 4.7-.6-1.8 2.3-4.7.5-.6-4.7z"/><path fill="none" stroke="#000" stroke-width="2" stroke-linejoin="bevel" d="M81 61.6l25.7 14.9-25.5 13.2"/><path d="M82.7 66.5l-1.2-4.6 4.6-1.2-2.5-1.5-4.6 1.3 1.2 4.6zM83.1 84.9l-1.4 4.5 4.5 1.5-2.5 1.3-4.6-1.4 1.5-4.6z"/><path fill="none" stroke="#000" stroke-width="2" stroke-linejoin="bevel" d="M54.1 88.8L30 75.8l24.5-27.5"/><path d="M52.2 83.9l1.4 4.6-4.6 1.4 2.5 1.4 4.6-1.4-1.4-4.6zM54.3 53.6l-.2-4.8-4.8.3 1.9-2.2 4.8-.3.3 4.8z"/><path fill="none" stroke="#000" stroke-width="2" stroke-linejoin="bevel" d="M53.6 39.7L29.4 26.9l24.7-12.6"/><path d="M51.6 34.9l1.5 4.5-4.6 1.4 2.5 1.4 4.6-1.4-1.4-4.6zM52.1 19.1l1.5-4.6-4.6-1.4 2.6-1.3 4.6 1.4-1.5 4.6z"/></g></svg>